<?xml version="1.0" encoding="UTF-8"?>
<svg xmlns="http://www.w3.org/2000/svg" version="1.1" viewBox="0 0 60 60">
  <!-- Generator: Adobe Illustrator 30.0.0, SVG Export Plug-In . SVG Version: 2.1.1 Build 123)  -->
  <defs>
    <style>
      .st0 {
        fill: #fff;
      }

      .st1 {
        isolation: isolate;
      }

      .st2 {
        fill: #daeaf6;
        mix-blend-mode: multiply;
      }

      .st2, .st3 {
        opacity: .5;
      }

      .st4 {
        fill: none;
        opacity: .1;
        stroke: #000;
        stroke-miterlimit: 10;
        stroke-width: .3px;
      }

      .st5 {
        display: none;
      }
    </style>
  </defs>
  <g class="st1">
    <g id="guide" class="st5">
      <g>
        <g class="st3">
          <rect class="st0" width="60" height="60"/>
        </g>
        <line class="st4" x2="60" y2="60"/>
        <line class="st4" y1="60" x2="60"/>
        <line class="st4" y1="30" x2="60" y2="30"/>
        <line class="st4" x1="30" x2="30" y2="60"/>
        <circle class="st4" cx="30" cy="30" r="30"/>
        <circle class="st4" cx="30" cy="30" r="15"/>
        <rect class="st4" x="3" y="3" width="54" height="54"/>
      </g>
      <rect class="st2" x="3" y="3" width="54" height="54"/>
    </g>
    <g id="work">
      <g>
        <path d="M40.5004065,19.4688219h4.8310604v-4.8267086h-4.8310604v4.8267086ZM42.0011168,16.1415097h1.8296398v1.8277937h-1.8296398v-1.8277937Z"/>
        <path d="M29.3253568,13.0995004l-5.8180932,18.9979698L3,42.50437v2.9307938l19.4447186-9.8686456-.5073237,1.6568806L3,46.8343318v10.165424l3.3095782.0002442h28.8038136v-.0002442h.3824477v-18.8990844l1.1952408-.7378564v19.6369407h1.6309625v-20.6438632l2.1094498-1.3022359,4.2213434-2.6059367,5.5776277-3.2945945c.2546393-.1552868.5014586-.326322.7477892-.4989442.1573779-.1104831.3176882-.2153505.4716448-.3329143.2639256-.2019216.5166099-.4231321.7685611-.6460516.1234097-.1091402.2521956-.2092465.3726727-.3235141.3653415-.3468316.7182198-.7136844,1.0517924-1.1062962,1.8936662-2.2284629,2.975028-4.8737097,3.2729218-7.5759682.0979946-.8859404.1092359-1.7781068.0398332-2.6634368-.0711133-.9041304-.2287355-1.8011801-.4716448-2.6779644-.7292167-2.6303529-2.2274832-5.0777067-4.4666964-6.977406-.00391-.0034183-.0085531-.006104-.0127075-.0097665-.3492127-.2954355-.7096666-.5686524-1.078185-.8247779-.1251203-.0869215-.2551281-.161635-.3824477-.2439174-.2519512-.1634662-.5043911-.3252232-.7636736-.4704994-.1532235-.086189-.310357-.1621233-.4660242-.24172-.2407099-.1237899-.482153-.2448941-.7279948-.353546-.1661754-.0737368-.3347945-.1397825-.5031693-.2065607-.2416874-.0959555-.4845967-.1870278-.7299498-.2688219-.1735066-.0579884-.3479908-.111826-.5229637-.1627337-.2463306-.0716614-.4941274-.1356318-.7433904-.1937422-.1754616-.0406529-.3509233-.0809396-.5273624-.114756-.2561056-.0493206-.5136774-.0878982-.7712493-.1228133-.1705741-.0231954-.3406595-.0493206-.5119668-.0660457-.2754113-.0273461-.5520444-.0402867-.8281888-.0512739-.1539566-.0062261-.3074244-.0184342-.4611367-.019655l-.5298062.0177017c-.3052251.0092781-.6102058.0195329-.914209.048344-.1915904.0179459-.3814702.0484661-.5718388.0743472-.2834756.0383334-.5664625.0795967-.8472501.1351434-.1967223.0388217-.3914896.0867994-.5867457.1340447-.2712569.0658016-.5412919.1369747-.8088831.2188909-.1955004.0598196-.3895346.1250107-.5825913.193376-.262215.0927814-.5217418.1943526-.7788249.3030045-.1893911.080085-.3782934.1618791-.5647519.2506319-.2556168.1213483-.5061018.2546605-.7551205.3920014-.177661.0980309-.3562996.1943526-.5305393.3005629-.2529287.1543101-.4982818.3241245-.7429017.495648-.1590885.1114598-.3208651.2174259-.4757992.3360884-.2617262.2003346-.5122112.4195917-.761963.6403138-.1258534.1110935-.2570831.2129089-.3795152.329374-.3633865.3448783-.7135766.7096557-1.045683,1.0998259-.0017106.0019533-.0036656.0036624-.0053763.0056157-.2367999.2785884-.4606479.5636471-.6720328.8544435-.4227697.5818371-.7949537,1.1868695-1.1170407,1.8092374-.1610435.3114281-.3070911.6282181-.445741.9466145-.0873646.2006244-.5449575,1.5142902-.5449575,1.5142902ZM38.3220428,34.5940226l-1.6309625,1.0070445-1.1952408.7378564-.1571335.0970542h0l-.8208575.5066353-5.2565182,3.2449076h0l-.1263422.0781317v-.0001221l-1.3386893.8266091-1.0855162.6701015v-.0001221l-1.5674248.9676124h0l-.939624.580128h-.0002444l-1.541521.9517419h0l-.4344997.2682115v-.0001221l-1.1822889.7300432,1.4215326-4.6421224.4454966-1.4538602c0,.0001221-.0002444.0003662-.0004888.0004883l.1556672-.5082224h0l.727506-2.3753261.5073237-1.6568806,1.0623005-3.4689259,3.5845007-11.7043746c.2326455,1.3872041.6661678,2.7436439,1.3086311,4.0178012.4129947.8186738.9095658,1.6036534,1.4887359,2.3417539.3966215.5055366.8465169.979088,1.3206055,1.4361585.217983.2102231.4298566.4248412.6639684.6234666.0017106.0015871.0036656.0026858.0056206.0042728.351412.2978772.7147985.5729252,1.0857606.8306378.123654.086067.2526843.1599258.378049.2414758.0425213.0275903.0855314.0546922.1280528.0817941.212118.1342889.4232585.2697986.640264.391391.1527347.0857007.3086463.1610246.4633361.2404992.0865089.0444374.1720404.0918048.2590381.1342889.1564004.0763005.3128007.1501594.4711561.2199896.165931.0734926.3343058.1396604.5021918.2063166.2182274.0866774.4364547.1712794.6576146.2463591.0244376.0083015.0493639.0147718.0738014.0229512.1727735.0576221.3460358.1112156.5205199.1620012.2475524.0721498.4963268.1363643.7465673.1944747.1747285.0406529.349457.0805733.5249187.1142676.2568387.0495648.5146549.0881423.7727155.1230574.1703298.0231954.3401708.0491986.5109893.0660457.2763888.027224.5535106.0404087.8306325.051396.1527347.006104.3057138.0183121.4584485.0195329.0354345.0002442.0708689.0046391.1065477.0046391.1424709,0,.2842088-.0183121.4266797-.022707.1845035-.0056157.3687627-.0058599.5525331-.0184342l-5.5243538,3.410083ZM52.4994907,25.275351c-1.3421106,1.5794814-3.0363663,2.7659847-4.9119487,3.5206882-.5422694.2181584-1.0972462.4027446-1.66713.5442362-.989721.2457486-2.0112108.3860195-3.0532282.3860195-1.5652254,0-3.1040583-.2997084-4.545141-.8568851-1.307898-.5056587-2.5356408-1.2220288-3.6204239-2.1421518-.075512-.0640924-.1414934-.1358759-.2152949-.2015554-2.4378905-2.1660796-3.9307808-5.1288585-4.1971502-8.3889042-.0610939-.7451812-.046187-1.4840142.021505-2.2133249.0542514-.5864762.148336-1.1650171.2829869-1.7335474.4530723-1.911297,1.3460206-3.7044198,2.6551404-5.2450795,2.403678-2.828368,5.9143772-4.4506997,9.6325513-4.4506997,2.9852918.0001221,5.8852965,1.065155,8.1653204,2.9990369,2.5708308,2.1809735,4.1377669,5.2317727,4.412445,8.5904596.2741894,3.3585649-.7766255,6.6228834-2.9596324,9.1917075Z"/>
      </g>
    </g>
  </g>
</svg>