<?xml version="1.0" encoding="UTF-8"?>
<svg xmlns="http://www.w3.org/2000/svg" version="1.1" viewBox="0 0 60 60">
  <!-- Generator: Adobe Illustrator 30.0.0, SVG Export Plug-In . SVG Version: 2.1.1 Build 123)  -->
  <defs>
    <style>
      .st0 {
        fill: #fff;
      }

      .st1 {
        isolation: isolate;
      }

      .st2 {
        fill: #daeaf6;
        mix-blend-mode: multiply;
      }

      .st2, .st3 {
        opacity: .5;
      }

      .st4 {
        fill: none;
        opacity: .1;
        stroke: #000;
        stroke-miterlimit: 10;
        stroke-width: .3px;
      }

      .st5 {
        display: none;
      }
    </style>
  </defs>
  <g class="st1">
    <g id="guide" class="st5">
      <g>
        <g class="st3">
          <rect class="st0" width="60" height="60"/>
        </g>
        <line class="st4" x2="60" y2="60"/>
        <line class="st4" y1="60" x2="60"/>
        <line class="st4" y1="30" x2="60" y2="30"/>
        <line class="st4" x1="30" x2="30" y2="60"/>
        <circle class="st4" cx="30" cy="30" r="30"/>
        <circle class="st4" cx="30" cy="30" r="15"/>
        <rect class="st4" x="3" y="3" width="54" height="54"/>
      </g>
      <rect class="st2" x="3" y="3" width="54" height="54"/>
    </g>
    <g id="work">
      <g>
        <path d="M12.2433918,25.5705566c.1262207-.2714844.310791-.4970703.536377-.6611328q-.0002441,0-.0002441-.0004883c-.2619629-.5673828-.0759277-1.3491211.1774902-1.9931641l-.4299316-1.3754883-.802002-2.5654297c-.050293-.159668.0395508-.3325195.1987305-.3823242l.199707-.0620117c.0297852-.0092773.0605469-.0136719.090332-.0136719.1298828,0,.2514648.0839844.2919922.2138672l.6381836,2.0400391.3461914,1.1079102c.3522949-.5078125.673584-.6611328.9077148-.7255859.128418-.0351562.2607422-.0419922.3925781-.0532227l-.3071289-.9824219-4.6411133-14.8442383c-.1142578-.3642578-.4506836-.5986328-.8144531-.5986328-.0839844,0-.1699219.0126953-.2548828.0390625l-1.9643555.6142578c-.4492188.1401367-.7006836.6201172-.5600586,1.0688477l5.4448242,17.4145508.5500488,1.7592773Z"/>
        <path d="M41.0659016,27.5627441c.0864258.1708984.1831055.3417969.2626953.512207.1323242.284668.2661133.6113281.3933105.9536133.0048828.0126953.0092773.0263672.0141602.0395508.0568848.1552734.1164551.3061523.1665039.4711914l.0007324-.0004883.9318848-.3540039,6.3815918-2.4248047c.0979004-.2050781.173584-.4121094.2280273-.6210938.1462402-.5610352.1398926-1.1357422-.0908203-1.722168-.0996094-.2539062-.2558594-.5273438-.5834961-.5273438h-.0097656c-.328125.0043945-.4521484.2524414-.565918.5351562-.2998047.737793-.8354492,1.2563477-1.5996094,1.4907227-.109375.0332031-.2128906.0488281-.309082.0488281-.4741211,0-.7739258-.3813477-.7182617-.9423828.050293-.4995117.1870117-.9775391.3183594-1.4570312,1.1245117-4.1362305,2.2509766-8.2729492,3.3686523-12.4116211.2070312-.7675781.309082-1.5776367,1.090332-2.0419922.0888672-.0537109.1401367-.1352539.1748047-.2280273.0766602-.3232422.1552734-.6474609.2319336-.9707031l.652832.1933594c.012207.0039062.0249023.0073242.0380859.0087891,0,0,.0004883.0009766.0014648.0009766,0,0,.0004883,0,.0009766-.0004883,0,0,.0004883.0014648.0014648.0014648.0004883,0,.0009766-.0004883.0009766-.0004883h.0014648c.0332031.0068359.0664062.0102539.0996094.0102539.0849609,0,.1679688-.0219727.2412109-.0610352.1132812-.0625.2041016-.1674805.2436523-.3007812.0791016-.2670898-.0742188-.550293-.3413086-.6293945l-.7036133-.2084961c.0429688-.1816406.0864258-.3642578.1303711-.5449219l.7324219.2172852c.0473633.0141602.0952148.0205078.1425781.0205078.0854492,0,.1689453-.0214844.2426758-.0610352.1137695-.0629883.2045898-.1674805.2441406-.3022461.0795898-.2670898-.0742188-.550293-.3413086-.6293945l-.784668-.2324219c.0063477-.0253906.0126953-.0522461.019043-.0776367.0913086-.3867188.184082-.7719727.2768555-1.1582031-.8862305-.265625-1.7714844-.5307617-2.6577148-.7963867l-.0961914.3012695-.0756836.2329102-.1230469.3881836-.0952148.293457-.7348633-.2177734c-.0478516-.0141602-.0961914-.0209961-.144043-.0209961-.0854492,0-.1689453.0219727-.2426758.0610352-.1132812.0625-.2041016.1674805-.2436523.3007812-.0795898.2680664.0737305.5512695.3417969.6308594l.7138672.2114258-.1713867.5327148-.7011719-.2075195c-.0478516-.0141602-.0961914-.0209961-.144043-.0209961-.0854492,0-.1694336.0219727-.2426758.0610352-.1137695.0625-.2045898.1674805-.2441406.3007812-.0791016.2670898.074707.550293.3427734.6293945l.6801758.2016602-.125.3891602c-.015625.0795898-.046875.1572266-.0712891.2358398-.0073242.0249023-.0170898.0478516-.0263672.0708008l-.0009766.0024414-.1030273.3198242c-.0039062.1137695.0224609.2275391.0473633.3393555.0878906.3911133.1455078.777832.0170898,1.1645508-.1274414.3842773-.293457.7558594-.4194336,1.140625-1.387207,4.2143555-2.7797852,8.4282227-4.1689453,12.6420898-.1303711.3945312-.3081055.5888672-.5541992.5888672-.1552734,0-.3378906-.0771484-.5527344-.2304688-.3017578-.2128906-.4599609-.5166016-.4858398-.878418-.0410156-.5981445.1347656-1.1459961.4277344-1.6660156.152832-.2724609.421875-.5712891.1381836-.8833008-.1293945-.1420898-.2817383-.1933594-.4394531-.1933594-.1762695,0-.3598633.0639648-.5273438.1357422-.9169922.3920898-1.559082,1.0458984-1.8842773,2.0107422-.0429688.1269531-.0649414.2548828-.0959473.3823242-.1142578.4692383-.1601562.9428711-.1618652,1.4194336.0026855.003418.0056152.0068359.0083008.0102539.8942871,1.175293,1.6396484,2.3535156,2.230957,3.5219727Z"/>
        <path d="M13.9116047,23.2263184c-.2045898.512207-.3278809,1.0522461-.2226562,1.2670898.1037598.2114258.277832.3637695.4614258.4379883.0769043.03125.1547852.0522461.230957.0522461.112793,0,.2197266-.0361328.3071289-.1152344.2177734-.1972656.4267578-.2719727.6220703-.2719727.2333984,0,.4467773.1064453.6323242.2382812.0097656.0068359.0131836.0146484.0222168.0219727.1560059.1245117.1708984.265625.1293945.4140625-.0583496.2089844-.2197266.4311523-.2409668.640625-.0136719.1308594-.0551758.2680664-.1201172.3818359-.1420898.2490234-.0175781.7587891-.3613281.7587891-.0131836,0-.0273438-.0009766-.0415039-.0024414-.375-.0395508-.9794922-.0708008-.8789062-.8085938.0424805-.3095703-.2329102-.5375977-.5581055-.6142578-.0605469-.0141602-.1186523-.0214844-.1743164-.0214844-.2626953,0-.4658203.1542969-.5737305.3920898-.1401367.309082-.244873.6337891-.3637695.9526367-.0192871.0517578-.0402832.1025391-.0588379.1542969-.0378418.1049805-.0842285.206543-.1193848.3125l.2463379.09375,4.4765625,1.7006836.5949707.2260742.59375.2255859h.0002441l1.1889648.4516602,3.7133789,1.4111328,1.4243164.5410156c-.0026855-.003418-.0041504-.0068359-.0068359-.0097656-.1291504-.1665039-.2431641-.3300781-.329834-.4916992-.0334473-.0625-.0483398-.1269531-.0759277-.1894531-.0048828-.0107422-.0085449-.0219727-.0131836-.0327148-.0444336-.1054688-.0981445-.2094727-.1271973-.3173828-.0019531-.0058594-.0024414-.0117188-.0039062-.0175781-.0974121-.3305664-.1201172-.6743164-.0800781-1.0102539-.0019531.0014648-.0039062.003418-.0058594.0043945-.0439453.0283203-.0939941.046875-.1552734.046875-.1088867,0-.2421875-.0390625-.3857422-.0957031-.144043-.0571289-.2905273-.109375-.4350586-.1655273-1.0341797-.4023438-2.074707-.7895508-3.112793-1.1826172-.7709961-.2924805-.9663086-1.1806641-.3920898-1.7773438.0634766-.0961914.1269531-.1293945.1899414-.1293945.1142578,0,.2255859.109375.3276367.1464844,1.2175293.4394531,2.4365234.8759766,3.6435547,1.3427734.1293945.0498047.2602539.0961914.3896484.1469727.3339844.1318359.4226074.2871094.404541.4526367,0,.0009766-.0004883.0014648-.0004883.0024414.1203613-.1689453.2565918-.3276367.4177246-.4643555.177002-.1494141.361084-.2900391.5446777-.4311523.045166-.034668.0888672-.0712891.1340332-.105957.1889648-.1445312.3779297-.2885742.5605469-.4404297.0007324-.0009766.001709-.0014648.0026855-.0019531.0266113-.0219727.0539551-.0424805.0822754-.0615234l.4926758-.3876953c.0002441-.0004883.0004883-.0009766.0004883-.0014648.3256836-.953125.6479492-1.90625.9702148-2.8598633.0332031-.0976562.0678711-.1992188.1010742-.296875.182373-.5395508.3701172-1.090332.5561523-1.637207-.0002441-.0004883-.0004883-.0014648-.0007324-.0024414-.1381836-.4663086-.3427734-.9057617-.6115723-1.3061523-.6479492-.9643555-1.6530762-1.7050781-2.9208984-2.0610352-.5444336-.152832-1.0986328-.2114258-1.6694336-.2114258-.3154297,0-.6362305.0180664-.9628906.0478516.3886719-1.0717773.7802734-2.1069336,1.3608398-3.0444336,1.293457-2.0898438,2.75-3.9873047,5.5336914-4.0693359.1953125-.0058594.3955078-.0708008.581543-.1401367,1.2553711-.465332,1.6479492-1.628418.8974609-2.7456055-.2587891-.3842773-.5727539-.7626953-.940918-1.0375977-2.8344727-2.1162109-6.0302734-3.2719727-9.5644531-3.4301758-.2133789-.0092773-.4316406-.0195312-.6489258-.0195312-.8330078,0-1.6508789.1464844-2.0932617,1.0249023-.5830078,1.1577148.1435547,2.0600586.8984375,2.8491211.8520508.8911133,1.1123047,1.9189453,1.0488281,3.125-.1972656,3.7646484-1.0854492,7.3681641-2.2729492,10.9291992-.1674805.5019531-.3405762,1.003418-.5185547,1.5039062-.0219727-.0097656-.0449219-.0166016-.0671387-.0253906l-.0002441-.0004883c-.1975098-.0776367-.409668-.1186523-.5866699-.2026367-.2226562-.1054688-.3879395-.2836914-.3845215-.7138672.0024414-.2973633-.230957-.4458008-.5131836-.480957-.0419922-.0048828-.0820312-.0151367-.1259766-.0151367-.1035156,0-.2099609.0146484-.3115234.0424805-.230957.0634766-.5358887.5703125-.7509766,1.1088867ZM20.4804524,24.333252c.4057617-.9389648.6503906-1.9770508,1.6650391-2.7871094.4003906-.3364258.9360352-.5356445,1.4902344-.5356445.3852539,0,.7797852.0961914,1.144043.3095703.9052734.5302734,1.515625,1.2949219,1.4633789,2.4291992-.0058594.1337891-.0126953.2675781-.0273438.3999023-.1635742,1.4589844-.3662109,2.034668-1.0839844,2.034668-.3515625,0-.8266602-.1381836-1.480957-.3779297-.90625-.3325195-1.8129883-.6611328-2.7163086-1.0004883-.2207031-.0830078-.6303711-.0644531-.4541016-.472168Z"/>
        <path d="M30.2297199,20.1726074c-.0756836.1069336-.1281738.222168-.173584.340332-.0925293.2382812-.1472168.4902344-.2392578.7285156-.0888672.2597656-.1762695.5195312-.2646484.7792969-.1132812.3334961-.2265625.6674805-.3395996,1.0009766-.4892578,1.4438477-.9768066,2.8876953-1.4702148,4.331543-.029541.0625-.0400391.1269531-.0412598.1918945-.003418.1708984.0693359.3447266.1188965.5043945.0209961.0585938.0515137.112793.0739746.1708984.0871582.2241211.1784668.4462891.2873535.6601562h.0002441c.1921387.3774414.4194336.7363281.6586914,1.0874023.2600098.3818359.5341797.7543945.817627,1.1147461.5559082.6748047,1.1376953,1.3378906,1.8127441,1.8857422.0307617.0249023.0561523.0566406.0871582.0810547.1276855.09375.2585449.1850586.3913574.2714844l.6657715-.2529297,1.0322266-.3920898h.0002441l.5541992-.2109375.5681152-.2158203,3.1760254-1.206543c-.1669922-.1108398-.3308105-.2260742-.4907227-.3481445-.3251953-.2485352-.6411133-.5112305-.9472656-.7822266-.0773926-.0727539-.1503906-.1499023-.2270508-.2236328-.1201172-.1152344-.2382812-.2329102-.3564453-.3510742-.1176758-.1171875-.2387695-.2314453-.3544922-.3510742q0-.0004883-.0002441-.0004883c-.2321777-.2407227-.4555664-.4897461-.6772461-.7402344-.6237793-.7050781-1.2075195-1.4458008-1.7272949-2.2338867-.7849121-1.1972656-1.5651855-2.4375-1.9609375-3.8374023-.1179199-.4819336-.2373047-1.0151367-.0424805-1.4814453.1225586-.2924805.4694824-.3828125.7597656-.3623047.4404297.0449219.8457031.2617188,1.2287598.4824219,1.3078613.7998047,2.4116211,1.9038086,3.4294434,3.0483398.0837402.0976562.1638184.1987305.246582.2973633.3554688.4243164.7021484.8579102,1.0297852,1.3061523,0,0,.0002441.0004883.0004883.0004883.1520996.2084961.2961426.421875.4401855.6357422.1271973.1889648.2507324.3798828.3703613.5732422.1342773.2167969.2695312.4326172.3930664.6552734.4223633.746582.8276367,1.5214844,1.0998535,2.3374023.0507812.1518555.1054688.3022461.1455078.4575195.0012207.0063477.0024414.0131836.0036621.0200195l.6264648-.2382812c-.0454102-.1601562-.0993652-.3173828-.1555176-.4750977-.1201172-.3369141-.2541504-.6699219-.404541-.9941406-.4348145-.9287109-.9577637-1.8168945-1.5332031-2.6708984-.1569824-.2333984-.317627-.4643555-.4829102-.6918945-.1738281-.2392578-.3535156-.4736328-.5349121-.706543q-.0002441,0-.0002441-.0004883c-.1420898-.1821289-.28125-.3676758-.4274902-.5458984-.0153809-.019043-.029541-.0390625-.045166-.0576172-.1584473-.1816406-.324707-.3579102-.4873047-.5371094-1.0458984-1.1499023-2.1804199-2.2387695-3.5053711-3.0610352-.6223145-.3588867-1.3100586-.7192383-2.041748-.652832-.442627.0351562-.8469238.3007812-1.0874023.659668Z"/>
        <path d="M30.6757649,33.8049316l.2451172-.0932617c-.1540527-.1152344-.3022461-.237793-.4465332-.3647461-.0551758-.0483398-.1115723-.0957031-.1657715-.1450195-.6381836-.6103516-1.2236328-1.2758789-1.7529297-1.9824219-.0415039-.0581055-.0820312-.1186523-.1235352-.1772461-.2353516-.3339844-.4638672-.6757812-.6784668-1.0268555-.114502-.1875-.2185059-.3789062-.3181152-.5732422-.1118164-.2182617-.2133789-.4404297-.2980957-.6704102-.076416-.2070312-.1437988-.4179688-.1911621-.6367188-.0058594-.0263672-.0178223-.050293-.0231934-.0766602-.402832.3349609-.833252.6342773-1.2333984.9726562-.4660645.3959961-.6687012,1.0761719-.4851074,1.6611328.0712891.2753906.2270508.519043.4047852.7392578.0153809.0195312.0305176.0395508.0458984.059082.0148926.0185547.0297852.0380859.0444336.0566406.0876465.1113281.1748047.2226562.2619629.3339844.0285645.0366211.0568848.0727539.0854492.109375.092041.1176758.1845703.2353516.2766113.3530273.1064453.1357422.2131348.2714844.3193359.4077148h.0004883l.0507812.019043.9345703.3554688,1.7880859.6791992.0229492.0087891.6064453.2304688.6064453-.2304688.0229492-.0087891Z"/>
        <path d="M35.3063801,25.0983887c-.6347656-.3754883-1.4692383-.4897461-2.1486816-.125.3508301.7949219.8359375,1.5107422,1.3608398,2.1943359.2194824.2504883.4418945.5053711.675293.7495117.2316895.2421875.4802246.465332.75.6611328,0,.0004883.0002441.0004883.0004883.0004883.0869141.0629883.1699219.1313477.262207.1865234.2949219-.2197266.4282227-.5820312.4804688-.9370117v-.0004883c.0031738-.0214844.0092773-.0424805.0117188-.0634766.0439453-.4174805-.0253906-.8378906-.1777344-1.2280273-.2319336-.59375-.6616211-1.1162109-1.2145996-1.4379883Z"/>
        <path d="M29.2651203,36.5148926l-.21875.3027344-.4064941.5629883-2.8571777,3.9555664c-.0957031.1328125-.2480469.2070312-.4052734.2070312-.0595703,0-.1191406-.0107422-.1777344-.0322266l-2.4055176-.9140625-1.4628906-.5556641-.7507324-.2856445-.1650391-.0625-1.1496582-.4370117h-.0002441l-.1611328-.0615234-.59375-.2255859-.7578125-.2875977-1.6005859-.6083984-.1196289-.0454102-.4750977-.1806641-.1933594-.0732422-.4006348-.1523438-.0007324-.0004883-1.1884766-.4511719-.8366699-.3183594-.4665527-.1772461-.467041-.1772461h-.0002441l-.8208008-.3120117-.1191406-.0454102-.3808594-.1445312v13.4750977l18.3632812,6.9780273.5.1899414v-20.512207l-.2810059.3891602h-.0002441Z"/>
        <polygon points="11.1830891 35.1149902 11.3310383 35.1711426 12.271468 35.5285645 12.2717121 35.5285645 12.7453449 35.7087402 13.2233723 35.8903809 13.394759 35.9553223 14.5829914 36.4069824 14.583968 36.4069824 15.1779621 36.6330566 15.7726887 36.8586426 19.2851399 38.1936035 19.8781574 38.4187012 20.3884114 38.6125488 20.3886555 38.6125488 21.3532551 38.979248 21.3779133 38.9885254 22.1049641 39.2648926 22.7360676 39.5046387 22.7363117 39.5046387 23.9062336 39.9494629 25.196761 40.4396973 27.7162922 36.9509277 28.3000324 36.1428223 28.3007649 36.1418457 28.5922688 35.7380371 28.8847492 35.333252 28.9008625 35.310791 28.9560383 35.2346191 29.0463703 35.1096191 29.1515949 34.963623 29.2590168 34.8146973 29.259261 34.8146973 29.0605305 34.739502 29.0463703 34.7336426 27.868636 34.286377 27.8671711 34.2858887 27.2651203 34.0568848 27.0053547 33.958252 26.9562824 33.9396973 26.8564289 33.9016113 26.3303059 33.7019043 26.0385578 33.5910645 25.8632649 33.5246582 25.3871907 33.3435059 24.2192219 32.8996582 23.2485188 32.5310059 20.083968 31.3288574 18.8950032 30.8771973 18.894759 30.8771973 18.8508137 30.8605957 18.301009 30.6516113 18.2890461 30.6467285 17.7060383 30.4255371 14.7314289 29.295166 14.2607258 29.1164551 13.802718 28.942627 13.2294758 28.7248535 12.6347492 28.4987793 12.0619953 28.2810059 12.0407551 28.2731934 12.0400227 28.2727051 11.5014485 28.0681152 10.8515461 27.8215332 10.6830891 27.7570801 10.4863117 27.6828613 10.3637532 27.6359863 10.1833332 27.885498 9.6830891 28.5783691 9.1830891 29.2702637 6.3012532 33.2600098 9.1830891 34.3552246 9.6830891 34.545166 10.1833332 34.7351074 10.6830891 34.9250488 11.1830891 35.1149902"/>
        <path d="M48.7206867,36.2561035l-.0002441.0004883-.6066895.2304688-.6381836.2426758-6.4697266,2.4584961-.8366699.3178711-.7758789.2949219h-.0007324l-1.4418945.5478516-3.0576172,1.1621094c-.0585938.0214844-.1181641.0322266-.1777344.0322266-.1572266,0-.3095703-.0742188-.4052734-.2070312l-2.9924316-4.1425781-.2712402-.3759766-.3352051-.4638672-.0024414-.003418-.1623535-.2246094v20.512207l.5-.1899414,18.3623047-6.9780273v-13.4750977l-.5.1899414-.1879883.0712891ZM38.1386555,44.9689941l2.4230957-2.612793.0324707,6.8681641-2.4399414-.9824219-1.8935547.6347656-.015625-3.2729492,1.8935547-.6347656ZM44.5715168,44.4523926c.0068359,1.4375-.5808105,2.9267578-1.5144043,4.1362305l-.4147949-.3461914c.8085938-1.0478516,1.317627-2.3378906,1.3117676-3.5834961-.0058594-1.2460938-.5253906-2.1914062-1.3415527-2.6938477l.3640137-.5527344.0463867-.0703125c.0288086.0175781.0500488.0458984.0783691.0649414.892334.5927734,1.463623,1.6513672,1.4702148,3.0454102ZM41.5138996,43.8981934l.4108887-.6225586c.5354004.3300781.8764648.9501953.8803711,1.7685547.0039062.8173828-.3303223,1.6640625-.8615723,2.3520508l-.4147949-.3466797c.4057617-.5258789.6618652-1.1733398.6589355-1.7988281-.0029297-.625-.2644043-1.1000977-.6738281-1.3525391Z"/>
        <polygon points="50.4291828 28.6066895 50.408675 28.5783691 49.908675 27.8859863 49.802718 27.739502 49.728011 27.6359863 49.408675 27.7570801 49.1269367 27.864502 48.2199543 28.2087402 43.0771321 30.1628418 42.1220539 30.5256348 42.1215657 30.526123 41.6384114 30.7097168 41.1572102 30.892334 41.1181477 30.9069824 41.0261067 30.9421387 40.377425 31.1887207 39.1286457 31.6628418 34.6222981 33.3752441 34.570052 33.3947754 34.2929524 33.5002441 34.1137532 33.5686035 33.6164387 33.7575684 33.6161946 33.7575684 32.6591633 34.1208496 31.6118 34.5187988 31.3622883 34.6140137 31.0463703 34.7336426 31.0322102 34.739502 30.8334797 34.8146973 30.8337239 34.8146973 30.9313801 34.9499512 30.9411457 34.963623 30.9792317 35.0163574 31.0463703 35.1096191 31.1367024 35.2346191 31.2724446 35.4226074 31.5654133 35.8278809 31.5654133 35.8283691 32.1511067 36.6394043 34.8959797 40.4396973 36.7187336 39.7473145 37.9880207 39.2648926 37.9887532 39.2644043 38.6459797 39.0148926 39.3703449 38.739502 47.8886555 35.5026855 48.4203938 35.3005371 48.908675 35.1149902 48.9533528 35.0979004 48.9540852 35.0979004 49.408675 34.9250488 49.908675 34.7351074 50.0102375 34.6965332 50.408675 34.545166 50.908675 34.3552246 53.790511 33.2600098 50.908675 29.2702637 50.4291828 28.6066895"/>
      </g>
    </g>
  </g>
</svg>