<?xml version="1.0" encoding="UTF-8"?>
<svg xmlns="http://www.w3.org/2000/svg" version="1.1" viewBox="0 0 60 60">
  <!-- Generator: Adobe Illustrator 30.0.0, SVG Export Plug-In . SVG Version: 2.1.1 Build 123)  -->
  <defs>
    <style>
      .st0 {
        fill: #fff;
      }

      .st1 {
        isolation: isolate;
      }

      .st2 {
        fill: #daeaf6;
        mix-blend-mode: multiply;
      }

      .st2, .st3 {
        opacity: .5;
      }

      .st4 {
        fill: none;
        opacity: .1;
        stroke: #000;
        stroke-miterlimit: 10;
        stroke-width: .3px;
      }

      .st5 {
        display: none;
      }
    </style>
  </defs>
  <g class="st1">
    <g id="guide" class="st5">
      <g>
        <g class="st3">
          <rect class="st0" y="0" width="60" height="60"/>
        </g>
        <line class="st4" y1="0" x2="60" y2="60"/>
        <line class="st4" y1="60" x2="60" y2="0"/>
        <line class="st4" y1="30" x2="60" y2="30"/>
        <line class="st4" x1="30" y1="0" x2="30" y2="60"/>
        <circle class="st4" cx="30" cy="30" r="30"/>
        <circle class="st4" cx="30" cy="30" r="15"/>
        <rect class="st4" x="3" y="3" width="54" height="54"/>
      </g>
      <rect class="st2" x="3" y="3" width="54" height="54"/>
    </g>
    <g id="work">
      <g>
        <path d="M5.8231201,10.3969727v16.6391602c.4741211-.4321289.9699707-.8398438,1.5-1.2045898v-13.9345703h48.157959v30.1577148h-27.0458984c-.1831055.5146484-.3942871,1.0146484-.6340332,1.5h29.1799316V10.3969727H5.8231201Z"/>
        <path d="M29.2415771,37.6328125c-.0119629.6533203-.0751953,1.2929688-.1738281,1.921875h23.9133301V14.3969727H9.8231201v10.0625c.4926758-.2070312,1.0029297-.378418,1.5219727-.5292969.1574707-.0454102.3183594-.0825195.4780273-.1230469,1.0966797-.2763672,2.2380371-.4394531,3.4194336-.4394531.2561035,0,.5058594.0249023.7587891.0385742,1.1801758.0634766,2.3266602.2563477,3.4123535.5957031.6203613.1938477,1.2145996.4433594,1.795166.7182617.159668-.0234375.3193359-.0473633.4836426-.0473633.2543945,0,.5048828.027832.748291.0830078l.012207-.012207c.6716309-.6708984,1.6018066-1.0585938,2.5686035-1.0957031v-.769043h.8217773v.8188477c.7702637.1328125,1.4763184.4858398,2.0310059,1.0395508.715332.7138672,1.109375,1.6777344,1.1098633,2.7133789,0,.1181641-.0224609.2304688-.0327148.3466797,0,.0009766,0,.0019531-.0002441.0029297h.1694336v.8217773h-.3303223c-.0893555.284668-.204834.5571289-.3574219.8120117h.6877441v.8217773h-.8122559v-.621582c-.0009766.0014648-.0021973.0024414-.0031738.0039062-.1213379.1762695-.2514648.347168-.4033203.5019531.0803223.3076172.1071777.6225586.0991211.9370117v.0004883h.307373v.8217773h-.171875c.2250977.527832.4084473,1.0756836.5683594,1.6342773h.4157715v.8217773h-.2041016c.0002441.0004883.0002441.0009766.0004883.0019531.1184082.5366211.2121582,1.0820312.2670898,1.6396484,0,.0004883.0002441.0014648.0002441.0019531h.7583008v-.8217773h.8217773v.8217773h-.8217773v.8212891h.8217773v.734375h-.8217773v-.734375h-.7167969c.0073242.1870117.0283203.3706055.0283203.559082,0,.059082-.0080566.1162109-.0087891.175293-.0004883.0263672-.003418.0517578-.0039062.078125ZM35.6856689,17.9570312v-1.5600586h.8195801v1.5600586h.8198242v-1.5600586h1.6401367v.7402344h.8200684v-.7402344h1.6398926v.7402344h.8200684v-.7402344h3.2800293v.7402344h.8200684v-.7402344h4.6357422v21.1577148h-3.8156738v-.7373047h-.8200684v.7373047h-4.1000977v-.7373047h-.8200684v.7373047h-3.2800293v-.7373047h-.8200684v.7373047h-.8198242v-.7373047h-.8195801v.7373047h-.8220215v-.734375h-.8217773v.734375h-.8122559v-.734375h.8122559v-2.4648438h.8217773v-1.6342773h-.8217773v.8125h-.8122559v.8217773h-.8217773v.8217773h.8217773v.8217773h-.8217773v.8212891h-.8215332v-.8212891h.8215332v-.8217773h-.8215332v-.8217773h.8215332v-.8217773h-.8215332v-.8125h-.8217773v-.8217773h.8217773v.8217773h.8215332v.8125h.8217773v-.8125h.8122559v-1.6435547h.8217773v-1.6435547h.8220215v-.8120117h-.8220215v-3.2871094h-.8217773v-.8217773h-.8122559v1.6435547h.8122559v4.0991211h-.8122559v1.6435547h-.8217773v-1.6435547h.8217773v-4.0991211h-.8217773v-1.6435547h.8217773v-.8125h-.8217773v-.8217773h.8217773v.8217773h.8122559v-2.465332h.8217773v-.8217773h-.8217773v-.8120117h-.8122559v-1.6435547h.8122559v-1.5610352h.8237305v1.5600586h.8200684ZM29.9454346,30.2558594h-.0026855v-.8217773h.8217773v.8217773h.8217773v.8217773h-.8217773v-.8217773h-.8190918ZM32.4078369,17.1362305v-.7392578h.8217773v.7392578h-.8217773v.8217773h-.8215332v.8217773h.8215332v.8217773h-.8215332v.8120117h-.8217773v-.8120117h.8217773v-.8217773h-.8217773v-.8217773h.8217773v-.8217773h-.8217773v-.7392578h.8217773v.7392578h.8215332ZM33.2296143,22.0571289h-.8217773v-1.6435547h.8217773v1.6435547ZM31.5863037,29.434082v-.8120117h.8215332v.8120117h-.8215332ZM31.5863037,27.800293v-.8217773h-.8217773v-.8217773h.8217773v.8217773h.8215332v.8217773h-.8215332ZM30.7645264,28.6220703h-.8217773v-.8217773h.8217773v.8217773ZM29.1207275,18.7797852v-.8217773h.8220215v.8217773h-.8220215ZM30.7645264,24.5131836v-1.6342773h.8217773v1.6342773h-.8217773v.8217773h-.8217773v-.8217773h.8217773ZM31.5863037,21.2353516v.8217773h-.8217773v-.8217773h.8217773ZM29.942749,17.1362305h-.8220215v-.7392578h.8220215v.7392578ZM27.4866943,17.9570312v-.8208008h.8217773v.8217773h-.8217773v-.0009766ZM28.3084717,20.4135742v-.8120117h.8122559v.8120117h.8220215v.8217773h-.8220215v-.8217773h-.8122559ZM29.1207275,22.0571289h.8220215v.8217773h-.8220215v-.8217773ZM29.1207275,23.7006836v.8125h-.8122559v-.8125h.8122559ZM29.1207275,26.1567383h.8220215v.8217773h-.8220215v-.8217773ZM26.6654053,20.4135742h-.8220215v-.8120117h.8220215v.8120117ZM26.6654053,17.1362305h-.8220215v-.7392578h.8220215v.7392578ZM27.4866943,22.0571289v-.8217773h.8217773v.8217773h-.8217773ZM29.1207275,32.7211914v-.8217773h.8220215v.8217773h-.8220215ZM29.942749,33.5336914h.8217773v.8217773h-.8217773v-.8217773Z"/>
        <polygon points="35.6856689 18.7768555 36.505249 18.7768555 36.505249 17.9580078 36.505249 17.9570312 35.6856689 17.9570312 35.6856689 17.9580078 35.6856689 18.7768555"/>
        <polygon points="38.1451416 18.7768555 38.1451416 17.9570312 38.1414795 17.9570312 37.3294678 17.9570312 37.3250732 17.9570312 37.3250732 18.7768555 38.1451416 18.7768555"/>
        <rect x="38.1451416" y="17.137207" width=".8200684" height=".8198242"/>
        <rect x="35.6856689" y="19.597168" width=".8195801" height="1.6396484"/>
        <polygon points="34.0455322 17.9570312 34.0455322 17.9580078 34.0455322 18.7768555 34.0455322 19.597168 35.6856689 19.597168 35.6856689 18.7768555 34.8656006 18.7768555 34.8656006 17.9570312 34.8636475 17.9570312 34.0455322 17.9570312"/>
        <rect x="36.505249" y="18.7768555" width=".8198242" height=".8203125"/>
        <rect x="38.1451416" y="18.7768555" width=".8200684" height=".8203125"/>
        <rect x="37.3250732" y="19.597168" width=".8200684" height="1.6396484"/>
        <rect x="36.505249" y="21.2368164" width=".8198242" height="4.1005859"/>
        <polygon points="34.8656006 21.2368164 34.8656006 23.6972656 34.0455322 23.6972656 34.0455322 24.5170898 34.8656006 24.5170898 34.8656006 25.3374023 35.6856689 25.3374023 35.6856689 21.2368164 34.8656006 21.2368164"/>
        <rect x="36.505249" y="28.6171875" width=".8198242" height=".8203125"/>
        <rect x="35.6856689" y="25.3374023" width=".8195801" height="3.2797852"/>
        <rect x="37.3250732" y="25.3374023" width=".8200684" height="2.4599609"/>
        <rect x="46.3453369" y="31.8969727" width=".8200684" height=".8203125"/>
        <rect x="46.3453369" y="26.9770508" width=".8200684" height=".8203125"/>
        <rect x="46.3453369" y="22.0571289" width=".8200684" height=".8198242"/>
        <rect x="44.7054443" y="18.7768555" width=".8198242" height=".8203125"/>
        <rect x="44.7054443" y="21.2368164" width=".8198242" height=".8203125"/>
        <rect x="44.7054443" y="24.5170898" width=".8198242" height=".8203125"/>
        <rect x="44.7054443" y="29.4375" width=".8198242" height=".8198242"/>
        <rect x="44.7054443" y="33.5371094" width=".8198242" height=".8203125"/>
        <rect x="43.885376" y="35.1772461" width=".8200684" height=".8198242"/>
        <rect x="43.0653076" y="35.9970703" width=".8200684" height=".8203125"/>
        <rect x="42.2452393" y="33.5371094" width=".8200684" height=".8203125"/>
        <rect x="43.0653076" y="31.8969727" width=".8200684" height=".8203125"/>
        <rect x="43.0653076" y="30.2573242" width=".8200684" height=".8198242"/>
        <rect x="42.2452393" y="28.6171875" width=".8200684" height=".8203125"/>
        <rect x="43.885376" y="27.7973633" width=".8200684" height=".8198242"/>
        <rect x="43.0653076" y="26.1572266" width=".8200684" height=".8198242"/>
        <rect x="42.2452393" y="24.5170898" width=".8200684" height=".8203125"/>
        <rect x="43.0653076" y="22.8769531" width=".8200684" height=".8203125"/>
        <rect x="42.2452393" y="21.2368164" width=".8200684" height=".8203125"/>
        <rect x="43.0653076" y="19.597168" width=".8200684" height=".8198242"/>
        <rect x="43.0653076" y="17.137207" width=".8200684" height=".8198242"/>
        <rect x="39.7852783" y="17.137207" width=".8200684" height=".8198242"/>
        <rect x="41.4251709" y="17.9570312" width=".8200684" height=".8198242"/>
        <rect x="39.7852783" y="18.7768555" width=".8200684" height="1.6401367"/>
        <rect x="41.4251709" y="19.597168" width=".8200684" height=".8198242"/>
        <rect x="38.96521" y="20.4169922" width=".8200684" height="1.6401367"/>
        <rect x="40.6053467" y="21.2368164" width=".8198242" height=".8203125"/>
        <rect x="41.4251709" y="22.8769531" width=".8200684" height=".8203125"/>
        <rect x="39.7852783" y="22.8769531" width=".8200684" height=".8203125"/>
        <rect x="38.96521" y="23.6972656" width=".8200684" height=".8198242"/>
        <rect x="38.1451416" y="24.5170898" width=".8200684" height=".8203125"/>
        <rect x="38.1451416" y="22.0571289" width=".8200684" height="1.6401367"/>
        <rect x="39.7852783" y="25.3374023" width=".8200684" height=".8198242"/>
        <rect x="40.6053467" y="24.5170898" width=".8198242" height=".8203125"/>
        <rect x="38.96521" y="26.1572266" width=".8200684" height=".8198242"/>
        <rect x="41.4251709" y="26.1572266" width=".8200684" height=".8198242"/>
        <rect x="39.7852783" y="26.9770508" width=".8200684" height=".8203125"/>
        <rect x="41.4251709" y="27.7973633" width=".8200684" height=".8198242"/>
        <rect x="39.7852783" y="28.6171875" width=".8200684" height="1.6401367"/>
        <rect x="38.1451416" y="27.7973633" width=".8200684" height="1.6401367"/>
        <rect x="37.3250732" y="29.4375" width=".8200684" height="1.6396484"/>
        <rect x="35.6856689" y="29.4375" width=".8195801" height="1.6396484"/>
        <rect x="34.8656006" y="31.0771484" width=".8200684" height="1.6401367"/>
        <rect x="36.505249" y="31.0771484" width=".8198242" height="1.6401367"/>
        <rect x="37.3250732" y="32.7172852" width=".8200684" height="1.6401367"/>
        <rect x="36.505249" y="34.3574219" width=".8198242" height="2.4599609"/>
        <rect x="35.6856689" y="32.7172852" width=".8195801" height="1.6401367"/>
        <rect x="34.8656006" y="34.3574219" width=".8200684" height="2.4599609"/>
        <rect x="38.1451416" y="35.1772461" width=".8200684" height="1.6401367"/>
        <rect x="38.96521" y="33.5371094" width=".8200684" height="1.6401367"/>
        <rect x="38.1451416" y="31.8969727" width=".8200684" height=".8203125"/>
        <rect x="38.96521" y="30.2573242" width=".8200684" height="1.6396484"/>
        <rect x="40.6053467" y="31.0771484" width=".8198242" height=".8198242"/>
        <rect x="41.4251709" y="30.2573242" width=".8200684" height=".8198242"/>
        <rect x="41.4251709" y="32.7172852" width=".8200684" height=".8198242"/>
        <rect x="39.7852783" y="32.7172852" width=".8200684" height=".8198242"/>
        <rect x="40.6053467" y="34.3574219" width=".8198242" height=".8198242"/>
        <rect x="41.4251709" y="35.1772461" width=".8200684" height=".8198242"/>
        <rect x="39.7852783" y="35.9970703" width=".8200684" height=".8203125"/>
        <path d="M20.3572998,43.5546875l-1.1950684-1.1948242c-.7207031.5678711-1.5666504.9814453-2.4909668,1.1948242-.222168.0512695-.4482422.0917969-.6787109.1191406v5.9291992c2.8195801-.1713867,5.3771973-1.2895508,7.364502-3.0488281l-1.2407227-1.2402344-1.7590332-1.7592773Z"/>
        <path d="M5.8231201,36.6293945h3.125c.1083984-.9199219.4160156-1.7768555.875-2.5332031.1342773-.2211914.2797852-.434082.439209-.6367188l-.439209-.4389648-.9995117-.9995117-1.5004883-1.5004883-.0148926-.0151367-1.2409668-1.2407227c-.0800781.0908203-.1665039.1757812-.2441406.269043-1.6228027,1.9458008-2.6411133,4.4047852-2.8041992,7.0957031h2.8041992Z"/>
        <path d="M8.0067139,43.5546875l1.5-1.5.7556152-.7553711c-.1853027-.2353516-.3532715-.4838867-.5043945-.7441406-.423584-.7294922-.706543-1.5493164-.8098145-2.4257812H3.0189209c.1711426,2.8193359,1.2895508,5.3769531,3.048584,7.3642578l1.2407227-1.2402344.6984863-.6987305Z"/>
        <path d="M21.5369873,38.1293945c-.0583496.4956055-.1767578.9716797-.3425293,1.425293-.1276855.3486328-.2832031.6831055-.4672852,1.0004883-.151123.2602539-.3190918.5087891-.5043945.7441406l.7556152.7553711,1.5,1.5.6984863.6987305,1.2407227,1.2402344c.5290527-.5976562,1-1.2456055,1.4055176-1.9389648.2817383-.4819336.5378418-.9794922.7529297-1.5.1999512-.4838867.3603516-.9868164.4975586-1.4995117.0881348-.3291016.1655273-.6616211.2265625-1.0004883.0834961-.4663086.1367188-.9423828.1660156-1.425293h-5.9291992Z"/>
        <path d="M11.322876,42.3598633l-1.1950684,1.1948242-1.7590332,1.7592773-1.2407227,1.2402344c1.9873047,1.7592773,4.5449219,2.8774414,7.364502,3.0488281v-5.9291992c-.2304688-.0268555-.456543-.0678711-.6787109-.1191406-.9243164-.2133789-1.7700195-.6269531-2.4909668-1.1948242Z"/>
        <path d="M8.8236084,26.9467773c-.5268555.324707-1.0305176.6816406-1.5004883,1.0800781-.0671387.0566406-.1293945.1191406-.1953125.1772461l.1953125.1953125,1.0456543,1.0454102.454834.4550781.9995117.9995117,1.4997559,1.4995117c.0073242-.0053711.0148926-.0107422.0222168-.0166016.1540527-.1201172.3129883-.2333984.4780273-.3393555.7880859-.5063477,1.6940918-.8427734,2.6694336-.9580078v-5.9291992c-.9208984.0556641-1.8144531.2070312-2.6694336.4550781-.1611328.0463867-.3198242.097168-.4780273.1499023-.5249023.1762695-1.0314941.3896484-1.5219727.6323242-.3427734.1694336-.6757812.3540039-.9995117.5537109Z"/>
        <path d="M23.5096436,25.8081055c-.0014648.0014648-.003418.0024414-.0048828.0039062l-.1577148.1577148-.5563965.5566406-.0075684.0078125c-.1821289-.1313477-.3828125-.2255859-.5913086-.2841797-.0048828-.0014648-.0100098-.0009766-.0148926-.0019531-.203125-.0551758-.4133301-.0766602-.6218262-.0620117-.0053711.0004883-.0107422.0009766-.0163574.0014648-.2080078.0161133-.4133301.0673828-.6074219.152832-.010498.0048828-.0200195.0112305-.0305176.0161133-.0466309.0214844-.0839844.0634766-.1291504.0893555-.1386719.0791016-.2788086.1567383-.3977051.2744141-.001709.0019531-.0041504.0024414-.0058594.0043945-.3371582.3369141-.5117188.7709961-.5361328,1.2124023-.0185547.3344727.0732422.6635742.232666.9677734l-.6508789.6508789-1.9052734,1.9052734-1.5070801,1.5068359-.0087891.0087891-.75.75-.4104004.4106445.0002441.0004883c-.1347656.1293945-.2456055.2836914-.3398438.449707-.1254883.2207031-.2126465.4672852-.2504883.730957-.0029297.0200195-.0097656.0390625-.0119629.0595703l-.1638184,1.2514648-.0732422.5610352-.0476074.3642578-.0092773.0708008-.0170898.1298828-.2653809.265625-.1083984.1083984-.1313477.1313477c-.2788086.2788086-.2788086.7304688,0,1.0092773.2692871.2695312.6975098.2724609.9775391.0209961.0097656-.0087891.0222168-.0117188.0314941-.0209961l.0695801-.0693359.435791-.4360352.5651855-.0737305.4990234-.0654297,1.3134766-.171875c.0205078-.0019531.0393066-.0087891.0595703-.0117188.3054199-.0439453.5883789-.1533203.8339844-.3125.0527344-.0341797.1032715-.0698242.1520996-.1083984.067627-.0537109.135498-.1079102.1945801-.1699219l.0004883.0004883.2185059-.21875.0783691-.078125.175293-.175293.3947754-.3950195.3552246-.3549805,1.425293-1.425293.7145996-.7148438,1.8522949-1.8520508c.2687988.1425781.5654297.2041016.8615723.2075195.0100098,0,.0197754.0043945.0297852.0043945.0031738,0,.0065918-.0004883.0097656-.0009766.0178223,0,.0351562.0053711.0529785.0048828.1030273-.0039062.2050781-.0180664.3063965-.0385742.0012207-.0004883.0024414-.0004883.0036621-.0004883.1052246-.0214844.2080078-.0532227.3088379-.0927734.0036621-.0014648.0078125-.0024414.0117188-.0039062.2241211-.090332.4343262-.2216797.6137695-.4013672.0002441-.0004883.0007324-.0009766.0009766-.0014648.107666-.1079102.1936035-.2280273.269043-.3530273.314209-.5195312.3486328-1.1542969.1108398-1.7041016l-.0007324-.0014648c-.0646973-.1494141-.1425781-.2949219-.2480469-.4267578l.3916016-.3916016c.0009766-.0014648.0019531-.0024414.0031738-.003418.0585938-.0585938.1135254-.1132812.1628418-.1630859.0898438-.0898438.1569824-.1567383.1572266-.1572266.8933105-.8935547.8916016-2.4174805,0-3.3076172-.894043-.8920898-2.4060059-.8828125-3.296875.0019531ZM20.4771729,33.7998047l-.1325684.1328125-.4384766-.15625-.4924316-.175293-1.0717773-.3813477-.347168-.1240234.236084-.2358398.6621094-.6621094.520752-.5209961,1.6367188-1.6367188.0119629-.0117188.2348633.2358398,1.0583496,1.0625.2966309.2978516-2.1750488,2.175293Z"/>
      </g>
    </g>
  </g>
</svg>