<?xml version="1.0" encoding="UTF-8"?>
<svg xmlns="http://www.w3.org/2000/svg" version="1.1" viewBox="0 0 60 60">
  <!-- Generator: Adobe Illustrator 30.0.0, SVG Export Plug-In . SVG Version: 2.1.1 Build 123)  -->
  <defs>
    <style>
      .st0 {
        fill: #fff;
      }

      .st1 {
        isolation: isolate;
      }

      .st2 {
        fill: #daeaf6;
        mix-blend-mode: multiply;
      }

      .st2, .st3 {
        opacity: .5;
      }

      .st4 {
        fill: none;
        opacity: .1;
        stroke: #000;
        stroke-miterlimit: 10;
        stroke-width: .3px;
      }

      .st5 {
        display: none;
      }
    </style>
  </defs>
  <g class="st1">
    <g id="guide" class="st5">
      <g>
        <g class="st3">
          <rect class="st0" width="60" height="60"/>
        </g>
        <line class="st4" x2="60" y2="60"/>
        <line class="st4" y1="60" x2="60"/>
        <line class="st4" y1="30" x2="60" y2="30"/>
        <line class="st4" x1="30" x2="30" y2="60"/>
        <circle class="st4" cx="30" cy="30" r="30"/>
        <circle class="st4" cx="30" cy="30" r="15"/>
        <rect class="st4" x="3" y="3" width="54" height="54"/>
      </g>
      <rect class="st2" x="3" y="3" width="54" height="54"/>
    </g>
    <g id="work">
      <g>
        <path d="M52.8325195,25.3498529h-4.0517578v6.5527344c0,3.9316406-3.1982422,7.1298828-7.1298828,7.1298828h-17.4296875v4.4179688c0,2.3017578,1.8657227,4.1674805,4.1679688,4.1674805h15.925293l6.1801758,4.7509766c.5688477.4370117,1.3916016.0317383,1.3916016-.6860352v-4.0649414h.9462891c2.3012695,0,4.1674805-1.8657227,4.1674805-4.1674805v-13.9331055c0-2.3012695-1.8662109-4.1674805-4.1674805-4.1674805Z"/>
        <path d="M41.6508789,37.5324701c3.109375,0,5.6298828-2.5205078,5.6298828-5.6298828V13.0803217c0-3.109375-2.5205078-5.6298828-5.6298828-5.6298828H8.6293945c-3.1088867,0-5.6293945,2.5205078-5.6293945,5.6298828v18.8222656c0,3.109375,2.5205078,5.6298828,5.6293945,5.6298828h1.0883789v5.0810547c0,.5126953.4208984.8662109.8686523.8662109.1782227,0,.3608398-.0556641.5229492-.1806641l7.5024414-5.7666016h23.0390625ZM35.6767578,31.1628412l-1.3774414.6987305-.6977539,1.7768555c-.0844727.1665039-.3217773.1665039-.4057617,0l-.6982422-1.7768555-1.3774414-.6987305c-.1660156-.0844727-.1660156-.3217773,0-.40625l1.3774414-.6987305.6982422-1.7768555c.0839844-.1665039.3212891-.1665039.4057617,0l.6977539,1.7768555,1.3774414.6987305c.1665039.0844727.1665039.3217773,0,.40625ZM27.609375,14.0002435c.2543945-.5024414.9702148-.5024414,1.2246094,0l2.1054688,5.3666992,4.1552734,2.1108398c.5014648.2548828.5014648.9726562,0,1.2275391l-4.1552734,2.1108398-.2094727.5336914-1.8959961,4.8325195c-.2543945.5024414-.9702148.5024414-1.2246094,0l-1.6005859-4.0795898-.5048828-1.2866211-4.1552734-2.1108398c-.5014648-.2548828-.5014648-.9726562,0-1.2275391l4.1552734-2.1108398,2.1054688-5.3666992ZM18.9907227,13.8210443l1.3774414-.6992188.6977539-1.7763672c.0839844-.1665039.3217773-.1665039.4057617,0l.6982422,1.7763672,1.3774414.6992188c.1660156.0839844.1660156.3217773,0,.40625l-1.3774414.6987305-.6982422,1.7763672c-.0839844.1669922-.3217773.1669922-.4057617,0l-.6977539-1.7763672-1.3774414-.6987305c-.1665039-.0844727-.1665039-.3222656,0-.40625ZM22.5854492,26.6271967l-1.5458984,4.0185547c-.1860352.3764648-.7119141.3764648-.8979492,0l-1.5458984-4.0185547-3.0498047-1.5810547c-.3681641-.1904297-.3681641-.7285156,0-.9189453l3.0498047-1.5810547,1.5458984-4.0185547c.1860352-.3764648.7119141-.3764648.8979492,0l.6362305,1.6538086-.5087891.2592773c-1.7680664.9316406-1.4301758,2.6669922-.0395508,3.2807617l.0400391.0209961,3.4194336,1.7412109.034668.0878906-2.0361328,1.0556641Z"/>
      </g>
    </g>
  </g>
</svg>